<?xml version="1.0"?>
<svg version="1.1" xmlns="http://www.w3.org/2000/svg" width="400px" height="200px" style=""><path fill="#ff9100" d="M110.4833984375,149.0576171875q0.166015625,0.166015625,0.166015625,0.498046875q0,0.4150390625-1.66015625,2.0751953125q-0.830078125,0.6640625-0.830078125,0.99609375q0,0.166015625,0.166015625,0.5810546875t0.166015625,0.7470703125q0.166015625,0.498046875,0.166015625,1.9091796875l0,2.4072265625l0,1.162109375q0.0830078125,0,0.2490234375-0.0830078125t0.2490234375-0.0830078125q0.6640625,0,0.6640625,0.6640625l0,0.33203125q0,0.166015625-0.2490234375,0.4150390625t-0.498046875,0.4150390625l-0.2490234375,0.2490234375q0.33203125,1.66015625,0.33203125,2.98828125l0,1.0791015625q0,1.9091796875-0.33203125,3.2373046875q-0.0830078125,0.498046875-0.166015625,2.36572265625t-0.498046875,2.69775390625q-0.166015625,0.4150390625-0.87158203125,1.12060546875t-0.87158203125,0.95458984375q0,0.498046875-0.830078125,2.158203125q-0.166015625,1.2451171875-1.53564453125,3.0712890625t-1.53564453125,2.2412109375q-0.166015625,0.33203125-0.33203125,0.33203125l0,0.830078125q0,1.328125-0.99609375,2.0751953125q-1.9921875,1.328125-4.31640625,1.66015625q0.166015625,0.33203125,0.166015625,0.830078125q0,2.5732421875-4.0673828125,5.3125q-1.162109375,1.162109375-2.7392578125,1.162109375l-0.33203125,0q-0.5810546875,0-1.66015625,1.12060546875t-2.0751953125,1.12060546875q-0.6640625,0.0830078125-1.70166015625-0.7470703125t-1.36962890625-0.830078125l-0.33203125,0q-0.4150390625,0.2490234375-1.2451171875,0.78857421875t-1.2451171875,0.78857421875q-0.6640625,0.33203125-1.0791015625,0.33203125q-0.166015625,0-0.4150390625-0.0830078125t-0.4150390625-0.0830078125q-0.5810546875,0.166015625-0.99609375,0.9130859375t-0.99609375,0.9130859375q-0.9130859375,0-1.2451171875-0.166015625q-0.5810546875,0.5810546875-0.99609375,0.7470703125l-0.830078125,0q-0.5810546875,0-0.9130859375,0.166015625l-0.498046875,0l-0.6640625,0q-0.33203125,0-0.99609375,0.33203125t-1.2451171875,0.33203125l-0.498046875,0q-0.498046875,0.33203125-1.328125,0.33203125q-0.4150390625,0-2.0751953125-0.33203125q-0.498046875,0-2.158203125-0.33203125l-0.498046875,0l-0.5810546875,0q-0.0830078125,0-0.37353515625-0.0830078125t-0.45654296875-0.0830078125q-0.2490234375,0-0.87158203125,0.0830078125t-0.95458984375,0.0830078125q-0.4150390625,0-1.0791015625-0.33203125q-0.498046875-0.166015625-1.162109375-0.166015625q-0.99609375,0-1.494140625,0.33203125q-0.498046875,0.166015625-1.2451171875,0.166015625q-0.6640625,0-1.826171875-0.33203125t-1.5771484375-0.4150390625q-1.9921875-0.166015625-5.60302734375-1.328125t-4.19189453125-1.328125q-3.0712890625-0.7470703125-4.482421875-1.5771484375q-3.0712890625-0.498046875-4.0673828125-1.328125q-1.2451171875-0.4150390625-2.7392578125-1.9091796875q-1.494140625-0.498046875-2.158203125-1.494140625q-0.4150390625-0.166015625-2.2412109375-1.5771484375q-0.2490234375,0.2490234375-0.6640625,1.0791015625t-1.162109375,1.328125q0.33203125,0.166015625,0.33203125,0.498046875t-1.2451171875,1.5771484375q-0.2490234375,0.0830078125-0.830078125,1.328125q-0.498046875,0.7470703125-2.03369140625,1.4111328125t-2.69775390625,0.6640625q-0.166015625,0-0.45654296875-0.0830078125t-0.37353515625-0.0830078125l-0.4150390625,0q-0.2490234375,0-0.78857421875,0.2490234375t-0.87158203125,0.2490234375q-0.0830078125,0-0.2490234375-0.0830078125t-0.2490234375-0.0830078125q-0.2490234375,0-2.2412109375-0.498046875q-0.33203125,0-0.95458984375,0.29052734375t-1.03759765625,0.37353515625q-0.498046875,0.0830078125-0.78857421875-0.53955078125t-0.45654296875-0.70556640625q-1.5771484375,0.2490234375-2.4072265625-0.87158203125t-0.830078125-2.86376953125q0-0.99609375,0.166015625-1.494140625q0-0.0830078125,0.0830078125-0.37353515625t0.0830078125-0.45654296875q0-0.33203125-0.166015625-1.0791015625t-0.166015625-1.162109375q0-0.0830078125,0.0830078125-0.33203125t0.0830078125-0.33203125q-0.166015625-0.498046875-0.166015625-1.328125q0-0.498046875,0.0830078125-1.66015625t0.0830078125-1.7431640625l0-0.9130859375q-0.166015625,0.166015625-0.6640625,0.166015625q-0.830078125,0-0.830078125-0.830078125q0-0.33203125,0.166015625-0.498046875q0.33203125-0.33203125,1.328125-0.99609375q-0.166015625-0.33203125-0.166015625-1.4111328125q-0.5810546875-1.5771484375-0.99609375-4.8974609375q0-3.7353515625,0.6640625-5.478515625q-0.33203125-0.99609375-0.33203125-2.32421875q0-0.5810546875,0.0830078125-1.7431640625t0.0830078125-1.66015625q-0.166015625,0.166015625-0.498046875,0.166015625q-0.498046875,0-0.498046875-0.830078125q0-1.5771484375,0.498046875-2.0751953125q0.33203125-0.6640625,0.33203125-2.4072265625l0-1.826171875q0-1.2451171875,0.166015625-1.7431640625l0-0.33203125q0-2.4072265625,3.0712890625-3.4033203125q0.33203125-0.166015625,0.830078125-0.166015625l1.7431640625,0l0.830078125,0l0.498046875,0q0.9130859375,0,1.9091796875,0.33203125q3.0712890625,0,4.5654296875,0.166015625q0.4150390625,0,1.494140625-0.0830078125t1.5771484375-0.0830078125q2.2412109375,0,3.0712890625,1.0791015625q0.9130859375,0.9130859375,2.158203125,6.5576171875q1.66015625-0.830078125,2.2412109375-0.830078125q0.498046875,0,0.498046875,0.498046875q0,0.5810546875-0.166015625,0.7470703125q-0.0830078125,0.33203125-0.95458984375,1.03759765625t-0.87158203125,0.95458984375q0.498046875,1.0791015625,0.830078125,2.5732421875q0.498046875,0.7470703125,1.03759765625,2.490234375t0.78857421875,2.2412109375q0.4150390625,0.2490234375,1.53564453125,0.45654296875t1.86767578125,0.5810546875t0.7470703125,1.03759765625q0,0.4150390625-0.5810546875,1.328125q0.2490234375,0.4150390625,2.0751953125,2.2412109375q0.498046875,0.33203125,1.494140625,1.328125q0.166015625,0.0830078125,0.70556640625,0.4150390625t0.99609375,0.62255859375t0.70556640625,0.53955078125l0.33203125,0q0.2490234375,0,0.70556640625-0.29052734375t0.70556640625-0.29052734375l0.166015625,0q0.6640625,0.2490234375,0.6640625,0.7470703125t-0.33203125,0.830078125q1.2451171875,0.5810546875,3.9013671875,0.99609375t3.9013671875,0.99609375q0.498046875,0.33203125,1.95068359375,0.87158203125t1.95068359375,0.87158203125q0.498046875,0.166015625,1.328125,0.166015625l1.2451171875,0l0.33203125,0q0.9130859375,0,3.2373046875-0.99609375q0.33203125-0.166015625,1.162109375-0.166015625l1.494140625,0l0.9130859375,0q0.5810546875-0.166015625,1.70166015625-0.2490234375t1.70166015625-0.2490234375q0.0830078125,0,0.29052734375-0.12451171875t0.37353515625-0.12451171875q0.9130859375,0,2.4072265625,0.7470703125q0.166015625-0.0830078125,0.62255859375-0.12451171875t0.87158203125-0.20751953125q0.33203125-0.166015625,0.9130859375-0.53955078125t0.9130859375-0.53955078125l0.498046875-0.2490234375l0.498046875-0.2490234375t0.4150390625-0.2490234375t0.37353515625-0.29052734375t0.20751953125-0.33203125t0.0830078125-0.45654296875q0-0.7470703125,0.7470703125-1.36962890625t0.830078125-1.03759765625q0.0830078125-0.6640625,0.830078125-1.28662109375t0.830078125-0.95458984375q0.0830078125-0.166015625,0.12451171875-0.45654296875t0.12451171875-0.53955078125t0.2490234375-0.498046875q0-0.9130859375,0.498046875-2.4072265625q0-0.166015625-0.0830078125-0.62255859375t-0.0830078125-0.70556640625l0-0.33203125q-0.2490234375-0.5810546875-0.498046875-2.03369140625t-0.33203125-1.86767578125q-0.0830078125-0.2490234375-0.2490234375-0.53955078125t-0.45654296875-0.62255859375t-0.498046875-0.498046875t-0.6640625-0.498046875t-0.53955078125-0.4150390625q-0.4150390625-0.166015625-1.7431640625-0.53955078125t-1.9921875-0.78857421875q-0.166015625,0-0.830078125-0.2490234375t-0.99609375-0.2490234375t-0.830078125,0.33203125t-0.7470703125,0.33203125l-0.33203125,0q-0.498046875,0-0.830078125-0.33203125q0-0.33203125-0.166015625-0.33203125q-0.33203125,0-0.6640625,0.33203125l-0.6640625,0q-1.5771484375,0-2.0751953125-0.166015625q-1.162109375-0.33203125-1.162109375-1.5771484375q0-0.498046875,0.6640625-0.498046875l0.33203125,0q0.4150390625,0.0830078125,0.6640625,0.4150390625q0.0830078125,0.0830078125,0.166015625,0.0830078125q0.33203125,0,0.6640625-0.166015625q-0.6640625-0.4150390625-1.9091796875-0.498046875t-1.66015625-0.166015625q-0.2490234375-0.166015625-1.5771484375-0.498046875t-1.494140625-0.498046875q-3.3203125-0.33203125-5.0634765625-0.9130859375q-0.33203125-0.0830078125-1.162109375-0.12451171875t-1.4111328125-0.166015625t-0.830078125-0.53955078125q-0.498046875-0.0830078125-1.494140625-0.166015625t-1.4111328125-0.166015625q-0.6640625,0.0830078125-1.826171875-0.37353515625t-2.44873046875-1.0791015625t-1.78466796875-0.78857421875q-0.99609375-0.498046875-4.150390625-0.498046875q-0.33203125,0-1.0791015625,0.0830078125t-1.0791015625,0.0830078125l-0.498046875,0q-0.33203125-0.0830078125-0.62255859375-0.37353515625t-0.45654296875-0.29052734375t-0.498046875,0.166015625q-0.6640625,0.33203125-0.830078125,0.33203125q-0.5810546875,0-0.830078125-0.830078125l0-0.6640625q0-0.2490234375,0.0830078125-0.4150390625t0.0830078125-0.2490234375q0-0.166015625-0.6640625-0.5810546875q-1.9921875-0.99609375-3.0712890625-0.99609375q-1.328125,0.2490234375-4.31640625-1.494140625q-0.5810546875-0.2490234375-1.826171875-1.03759765625t-1.9091796875-1.03759765625q-2.98828125,0.99609375-3.4033203125,0.99609375q-0.166015625,0-0.4150390625-0.0830078125t-0.4150390625-0.0830078125q-1.162109375-0.2490234375-1.162109375-0.99609375t1.66015625-1.9921875q-3.818359375-2.490234375-5.7275390625-5.146484375q-0.7470703125,0.498046875-1.0791015625,0.498046875q-0.498046875,0-0.498046875-1.328125q0-1.5771484375-0.166015625-1.9091796875q-0.7470703125-0.7470703125-1.162109375-3.4033203125q-1.328125-3.5693359375-1.328125-7.63671875q-0.4150390625-1.0791015625-0.4150390625-3.0712890625q-0.0830078125-0.99609375-0.2490234375-1.0791015625q-0.2490234375,0-0.5810546875-0.5810546875q0-0.0830078125-0.0830078125-0.166015625t-0.0830078125-0.166015625q0-0.4150390625,0.99609375-1.4111328125l0-0.33203125l0-0.6640625l0-0.33203125q0-0.4150390625,0.0830078125-1.162109375t0.0830078125-1.0791015625q0-0.830078125,0.4150390625-2.490234375q0-1.2451171875,0.498046875-1.7431640625q0-0.166015625-0.2490234375-0.62255859375t-0.2490234375-0.70556640625q0.0830078125-0.4150390625,0.498046875-0.6640625t0.498046875-0.33203125q0.0830078125-0.2490234375,0.166015625-0.62255859375t0.166015625-0.62255859375q0-0.166015625,0.166015625-0.78857421875t0.33203125-1.03759765625q0-1.826171875,0.498046875-3.0712890625q0.166015625-0.4150390625,0.53955078125-1.03759765625t0.53955078125-1.03759765625q0.33203125-0.6640625,1.328125-1.328125q0.33203125-0.2490234375,1.03759765625-1.12060546875t1.53564453125-1.12060546875l0-0.498046875q0-1.9091796875,0.33203125-2.2412109375q0.5810546875-0.9130859375,2.32421875-2.158203125t1.9091796875-1.4111328125q0.2490234375-0.33203125,0.53955078125-0.62255859375t0.62255859375-0.5810546875t0.498046875-0.45654296875q1.494140625-1.162109375,2.4072265625-1.494140625q0.33203125-0.2490234375,1.0791015625-0.95458984375t1.328125-0.95458984375q1.4111328125-0.7470703125,4.2333984375-1.66015625t3.2373046875-1.0791015625q0.166015625-0.166015625,0.6640625-0.166015625q0.7470703125,0,0.99609375,0.6640625q1.2451171875-0.33203125,1.2451171875-0.498046875q0.0830078125-0.166015625,0.37353515625-0.53955078125t0.498046875-0.5810546875t0.45654296875-0.498046875t0.5810546875-0.4150390625t0.7470703125-0.12451171875l1.2451171875,0.33203125l2.158203125-1.0791015625q0.0830078125,0,0.37353515625-0.0830078125t0.37353515625-0.0830078125q0.498046875,0,1.328125,0.5810546875q0.9130859375-1.2451171875,2.0751953125-1.2451171875q0.4150390625,0,1.2451171875-0.2490234375t1.2451171875-0.2490234375l0.33203125,0q1.0791015625,0,1.9091796875,0.830078125q0.166015625-0.166015625,0.99609375-0.166015625l0.498046875,0l0.33203125,0q0.33203125,0,1.03759765625,0.166015625t1.03759765625,0.166015625q0.0830078125,0,0.33203125-0.0830078125t0.33203125-0.0830078125l0.33203125,0q1.7431640625,0,2.4072265625,0.33203125q0.33203125-0.166015625,0.830078125-0.166015625q0.5810546875,0,1.826171875,0.37353515625t1.7431640625,0.37353515625q0.5810546875,0,1.0791015625-0.2490234375q0.166015625-0.166015625,0.830078125-0.166015625q0.9130859375,0,2.158203125,0.4150390625q2.0751953125,0,3.0712890625,0.498046875q1.328125,0.33203125,1.5771484375,0.33203125q0.498046875,0,1.494140625-0.33203125q0.0830078125,0,0.29052734375-0.0830078125t0.37353515625-0.0830078125q1.5771484375,0,1.5771484375,0.6640625q0,0.33203125-0.498046875,0.830078125l3.5693359375,0.6640625q0.166015625,0.166015625,0.6640625,0.166015625l0.830078125,0q0.498046875,0,0.498046875,0.498046875l0,0.4150390625l0,0.166015625q0,0.2490234375,0.12451171875,0.37353515625t0.4150390625,0.29052734375t0.45654296875,0.33203125q0.5810546875,0.33203125,1.826171875,1.45263671875t1.9921875,1.45263671875q0.4150390625,0.0830078125,0.6640625,0.4150390625q0.0830078125,0.0830078125,0.166015625,0.0830078125l0.6640625-0.33203125q0.4150390625-0.166015625,0.6640625-0.37353515625t0.45654296875-0.45654296875t0.29052734375-0.4150390625t0.33203125-0.53955078125t0.33203125-0.62255859375q-0.0830078125-1.66015625,1.162109375-2.44873046875t3.0712890625-0.78857421875q0.2490234375,0,0.62255859375,0.0830078125t0.53955078125,0.0830078125l1.162109375,0q0.9130859375,0,1.2451171875-0.166015625l1.494140625-0.498046875l0.166015625,0q0.5810546875,0.0830078125,0.99609375,0.29052734375t0.5810546875,0.20751953125q0.0830078125,0,0.20751953125-0.04150390625t0.4150390625-0.12451171875t0.53955078125-0.166015625q0.6640625-0.33203125,1.66015625-0.33203125q1.2451171875,0,1.7431640625,0.166015625q1.0791015625,0.0830078125,1.826171875,0.99609375t0.7470703125,1.9091796875q0,0.498046875-0.33203125,1.162109375q0,2.65625-0.5810546875,4.0673828125l0.5810546875,4.0673828125q0.33203125,2.32421875,0.33203125,3.818359375q0,1.328125-0.33203125,2.98828125l0,0.7470703125q0,1.0791015625,0.2490234375,3.3203125t0.2490234375,3.4033203125q0,1.5771484375-0.166015625,2.2412109375q0.166015625,0.33203125,0.166015625,1.4111328125q0,0.830078125-0.166015625,1.162109375q0.166015625,0.5810546875,0.37353515625,0.70556640625t0.53955078125,0.166015625t0.5810546875,0.45654296875l0.166015625,0.33203125q0,0.498046875-0.95458984375,1.2451171875t-0.87158203125,1.328125q0.0830078125,0,0.2490234375-0.0830078125t0.2490234375-0.0830078125q0.830078125,0,0.830078125,0.830078125q0,0.9130859375-0.6640625,1.2451171875t-0.6640625,0.830078125l0,0.830078125q0.33203125-0.33203125,0.830078125-0.33203125q0.6640625,0,0.6640625,0.6640625q0,0.99609375-0.99609375,1.7431640625q-0.6640625,0.6640625-0.6640625,1.494140625l0,0.830078125q0,0.99609375-0.5810546875,1.5771484375q-1.5771484375,1.328125-3.9013671875,1.328125q-1.9091796875,0-3.5693359375-0.830078125q-1.328125,0.33203125-1.9921875,0.33203125q-1.5771484375,0-3.5693359375-0.33203125q-0.166015625,0.166015625-0.498046875,0.166015625l-0.7470703125,0l-0.33203125,0q-0.166015625,0.0830078125-0.9130859375,0.53955078125t-1.2451171875,0.62255859375l-0.33203125,0q-0.9130859375,0-0.9130859375-0.830078125q0-0.498046875,0.33203125-0.6640625q-2.65625,0-2.65625-4.98046875q0-1.162109375,0.33203125-2.158203125q-0.166015625-1.826171875-1.5771484375-5.478515625q-0.9130859375,0.6640625-1.826171875,0.6640625q-0.498046875,0-0.498046875-0.33203125q0-0.830078125,1.494140625-1.826171875q-0.2490234375-0.2490234375-0.45654296875-0.53955078125t-0.4150390625-0.6640625t-0.29052734375-0.53955078125q-0.4150390625-0.7470703125-1.36962890625-1.9091796875t-1.20361328125-1.494140625q-2.5732421875-1.494140625-3.7353515625-3.2373046875q-0.7470703125-0.498046875-0.99609375-0.498046875q-0.0830078125,0-1.0791015625,0.7470703125q-0.166015625,0.166015625-0.498046875,0.166015625q-0.6640625,0-0.6640625-0.9130859375q0-0.5810546875,0.498046875-0.830078125q-1.328125-0.4150390625-3.4033203125-2.03369140625t-2.9052734375-2.03369140625q-3.4033203125-0.6640625-3.7353515625-0.99609375q-0.33203125,0.166015625-1.328125,0.166015625q-0.6640625,0-2.03369140625-0.2490234375t-2.03369140625-0.2490234375q-0.166015625,0-0.498046875,0.0830078125t-0.498046875,0.0830078125q-1.9921875,0.6640625-2.0751953125,0.6640625q-0.7470703125,0-0.99609375-0.498046875q0-0.0830078125-0.45654296875,0.0830078125t-0.99609375,0.37353515625t-0.78857421875,0.20751953125q-0.5810546875-0.0830078125-1.86767578125,0.62255859375t-2.03369140625,0.70556640625q-0.33203125,0-0.99609375-0.33203125q-1.66015625,0.830078125-3.2373046875,0.830078125q-0.5810546875,0.0830078125-1.36962890625,0.53955078125t-1.61865234375,1.12060546875t-1.2451171875,0.9130859375q-3.3203125,2.2412109375-3.4033203125,2.4072265625q-1.2451171875,3.5693359375-1.2451171875,5.2294921875q0,1.826171875,1.0791015625,3.7353515625q0.9130859375-0.6640625,1.494140625-0.6640625q0.498046875,0,0.498046875,0.830078125q0,0.2490234375-0.0830078125,1.0791015625t-0.0830078125,1.162109375l0,0.33203125q0.33203125,0.498046875,1.78466796875,1.12060546875t1.78466796875,0.95458984375q0.99609375,0.2490234375,3.69384765625,1.20361328125t4.27490234375,1.12060546875q0.6640625-0.0830078125,2.158203125,0.45654296875t2.158203125,0.45654296875q0.2490234375,0,0.830078125,0.2490234375t0.830078125,0.2490234375q1.2451171875,0.4150390625,1.494140625,0.6640625q0.33203125-0.166015625,1.5771484375-0.166015625q1.4111328125,0.5810546875,4.68994140625,1.03759765625t4.85595703125,1.12060546875q0.4150390625,0,1.494140625,0.4150390625t1.328125,0.6640625q0.33203125,0.0830078125,1.12060546875,0.166015625t1.12060546875,0.166015625l0.6640625,0q0.5810546875,0,1.78466796875,0.29052734375t1.45263671875,0.37353515625q2.4072265625,0,4.7314453125,1.162109375q1.66015625,0.166015625,5.810546875,3.2373046875q1.826171875,0.166015625,4.8974609375,1.7431640625q0.498046875,0,1.0791015625,0.45654296875t0.830078125,0.53955078125q2.158203125-1.328125,2.7392578125-1.494140625q0.498046875-0.0830078125,0.7470703125,0.20751953125t0.2490234375,0.78857421875q0,0.33203125-0.33203125,0.99609375q-0.166015625,0.33203125-0.33203125,0.62255859375t-0.2490234375,0.4150390625t-0.0830078125,0.20751953125q0,0.2490234375,0.6640625,0.6640625q0.830078125,0.498046875,2.61474609375,1.2451171875t2.61474609375,1.2451171875l0.4150390625,0.2490234375q0.33203125,0,0.87158203125-0.498046875t0.95458984375-0.5810546875q0.0830078125,0,0.166015625-0.0830078125t0.166015625-0.0830078125q0.830078125,0,0.830078125,0.99609375l0,0.5810546875q0,0.0830078125,0.0830078125,0.0830078125q0.2490234375,0.0830078125,0.33203125,0.4150390625q0.166015625,0.166015625,0.166015625,0.498046875q0,0.498046875-0.45654296875,1.12060546875t-0.45654296875,0.70556640625l0,0.166015625q0.0830078125,0.166015625,0.37353515625,0.53955078125t0.37353515625,0.53955078125q2.158203125,1.9921875,2.98828125,8.30078125q1.2451171875-0.830078125,1.9091796875-0.830078125q0.7470703125,0,0.99609375,0.6640625z M104.755859375,155.3662109375q0-0.33203125-0.166015625-0.6640625q-1.328125,1.0791015625-3.94287109375,2.86376953125t-3.61083984375,2.53173828125q0.166015625-0.0830078125,2.44873046875-1.162109375t3.7353515625-1.9921875t1.53564453125-1.5771484375z M100.107421875,174.208984375l1.0791015625-0.498046875q-0.33203125,0-1.0791015625,0.498046875q0.166015625-0.0830078125,1.20361328125-0.45654296875t1.61865234375-0.78857421875t0.7470703125-0.9130859375q-0.830078125,0.5810546875-3.5693359375,2.158203125z M84.00390625,167.40234375q1.494140625-1.162109375,4.6484375-3.36181640625t4.6484375-3.27880859375q-5.2294921875,3.65234375-7.3046875,4.814453125q-1.66015625,0.99609375-2.490234375,1.328125q-0.7470703125,0.498046875-0.7470703125,0.6640625l0,0.9130859375q0.166015625-0.166015625,0.62255859375-0.53955078125t0.62255859375-0.53955078125z M70.390625,186.328125l-1.5771484375,0.99609375l4.814453125-3.0712890625q-0.830078125,0.5810546875-3.2373046875,2.0751953125q-8.7158203125,5.7275390625-12.94921875,9.296875q22.578125-14.443359375,35.52734375-21.9140625q1.0791015625-0.5810546875,4.3994140625-2.4072265625t5.146484375-2.65625q0.4150390625-0.166015625,1.20361328125-0.53955078125t1.20361328125-0.53955078125q0.498046875-0.2490234375,0.498046875-2.490234375q0-0.4150390625-0.0830078125-0.9130859375l-0.0830078125-0.498046875q-31.7919921875,20.5859375-34.86328125,22.6611328125z M78.525390625,177.7783203125l4.814453125-2.9052734375q-0.0830078125,0.0830078125-0.20751953125,0.166015625t-0.53955078125,0.33203125l-0.830078125,0.498046875t-0.9130859375,0.53955078125t-0.87158203125,0.53955078125t-0.7470703125,0.45654296875t-0.53955078125,0.29052734375l-0.166015625,0.0830078125q7.138671875-4.2333984375,16.5185546875-10.0439453125q1.0791015625-0.6640625,3.27880859375-2.03369140625t3.36181640625-2.03369140625l1.162109375-0.5810546875t1.61865234375-0.95458984375t0.62255859375-0.78857421875q-12.119140625,5.7275390625-16.8505859375,8.798828125q-4.3994140625,2.7392578125-7.138671875,4.8974609375q-0.2490234375,0.498046875-0.95458984375,0.95458984375t-1.66015625,0.830078125t-1.28662109375,0.62255859375q0.498046875,0.2490234375,0.498046875,0.830078125q0.166015625-0.0830078125,0.4150390625-0.2490234375t0.4150390625-0.2490234375z M101.1865234375,153.291015625l0.830078125-0.498046875q-0.33203125,0.166015625-0.830078125,0.498046875q0.166015625-0.0830078125,0.62255859375-0.33203125t0.78857421875-0.45654296875t0.70556640625-0.498046875t0.5810546875-0.53955078125t0.12451171875-0.498046875q-1.328125,1.328125-2.822265625,2.32421875z M91.640625,135.7763671875l-0.33203125,0.33203125l0.33203125-0.166015625l0-0.166015625q-3.154296875,2.65625-14.609375,11.0400390625q2.822265625-1.66015625,8.30078125-4.85595703125t8.30078125-4.77294921875q-0.2490234375-0.2490234375-1.03759765625-0.7470703125t-0.95458984375-0.6640625z M101.1865234375,142.4169921875l-0.7470703125,0.498046875q0.166015625,0,0.45654296875-0.20751953125t0.29052734375-0.29052734375q-1.7431640625,1.5771484375-5.146484375,4.482421875t-5.0634765625,4.3994140625q-0.4150390625,0.4150390625-1.78466796875,1.53564453125t-2.03369140625,1.70166015625t-1.5771484375,1.5771484375t-1.4111328125,1.9921875q1.66015625-0.498046875,3.61083984375-1.53564453125t3.27880859375-1.86767578125t3.5693359375-2.36572265625t3.154296875-2.11669921875q0.830078125-0.5810546875,2.61474609375-1.78466796875t2.61474609375-1.78466796875q-0.166015625-0.498046875-0.498046875-1.826171875q-0.166015625-0.4150390625-1.328125-2.4072265625z M59.1845703125,150.3857421875l0.6640625-0.498046875q-0.6640625,0.33203125-0.6640625,0.498046875q1.328125-0.7470703125,3.486328125-2.19970703125t2.7392578125-1.86767578125q-0.2490234375,0.166015625-2.7392578125,1.70166015625t-3.818359375,2.19970703125q0.33203125,0,0.33203125,0.166015625z M63.41796875,142.5830078125l1.328125-0.830078125q-2.158203125,1.162109375-2.158203125,1.328125q0.33203125-0.166015625,0.830078125-0.498046875q1.0791015625-0.6640625,4.27490234375-2.69775390625t4.814453125-3.0712890625t4.0673828125-2.86376953125t4.19189453125-3.5693359375q-0.166015625-0.166015625-0.498046875-0.166015625q-0.830078125,0-2.158203125,0.78857421875t-2.86376953125,1.95068359375t-1.78466796875,1.328125q-5.2294921875,3.4033203125-8.5498046875,5.810546875q-7.7197265625,5.3955078125-13.61328125,8.798828125q0.498046875,0.166015625,1.2451171875,0.166015625q0.498046875,0,0.95458984375-0.166015625t0.6640625-0.29052734375t0.87158203125-0.5810546875t0.9130859375-0.62255859375q7.3876953125-4.7314453125,7.470703125-4.814453125z M82.5927734375,131.54296875q-0.166015625-0.166015625-0.498046875-0.166015625q-0.166015625,0-0.37353515625,0.2490234375t-0.45654296875,0.4150390625q0.33203125-0.166015625,1.162109375-0.166015625l0.498046875,0q0-0.33203125-0.33203125-0.33203125z M75.2880859375,137.021484375l-0.498046875,0.33203125l2.0751953125-1.2451171875q-0.5810546875,0.2490234375-1.5771484375,0.9130859375q-1.2451171875,0.830078125-3.69384765625,2.53173828125t-3.77685546875,2.53173828125q10.29296875-5.5615234375,14.609375-8.6328125q-0.7470703125,0.0830078125-1.494140625,0.33203125t-1.5771484375,0.70556640625t-1.328125,0.7470703125t-1.494140625,0.95458984375z M84.169921875,134.7802734375q-0.166015625,0.166015625-0.166015625,0.33203125q0,0.0830078125,0.498046875-0.33203125q0-0.166015625-0.166015625-0.166015625l-0.166015625,0.166015625q-0.498046875,0.7470703125-1.20361328125,1.4111328125t-2.03369140625,1.66015625t-1.5771484375,1.162109375q1.494140625-0.830078125,4.3994140625-2.53173828125t4.31640625-2.53173828125q-1.494140625-0.498046875-1.7431640625-0.6640625q-1.328125,0.99609375-2.158203125,1.494140625z M75.2880859375,128.4716796875q-0.0830078125,0-0.33203125-0.0830078125t-0.33203125-0.0830078125t-0.20751953125,0.04150390625t-0.20751953125,0.0830078125t-0.20751953125,0.166015625l-0.20751953125,0.20751953125t-0.20751953125,0.2490234375t-0.20751953125,0.29052734375t-0.20751953125,0.33203125t-0.20751953125,0.37353515625q-0.99609375,1.162109375-4.150390625,3.9013671875q-5.0634765625,4.482421875-14.775390625,11.3720703125q3.154296875-1.9091796875,11.2890625-7.59521484375t12.8662109375-8.34228515625q-0.498046875,0-1.53564453125-0.4150390625t-1.36962890625-0.498046875z M49.638671875,137.1875l4.0673828125-2.4072265625q0.0830078125,0-0.99609375,0.62255859375t-2.19970703125,1.28662109375t-1.20361328125,0.6640625l0.33203125-0.166015625q14.0283203125-8.2177734375,17.6806640625-10.0439453125q-0.99609375-0.33203125-1.162109375-0.33203125q-0.33203125,0-1.0791015625,0.498046875q-0.4150390625,0.2490234375-1.328125,0.7470703125t-1.328125,0.7470703125q-4.0673828125,2.65625-8.8818359375,5.146484375q-0.99609375,0.5810546875-4.44091796875,2.5732421875t-5.02197265625,2.9052734375t-4.150390625,2.5732421875t-4.5654296875,3.154296875q0.33203125,0.0830078125,1.20361328125-0.29052734375t1.66015625-0.830078125t1.7431640625-1.0791015625t1.03759765625-0.70556640625q1.826171875-0.9130859375,4.85595703125-2.78076171875t3.77685546875-2.28271484375z M59.3505859375,133.4521484375l-0.33203125,0.33203125l0.33203125-0.33203125q-0.4150390625,0.2490234375-1.20361328125,0.6640625t-1.20361328125,0.6640625q0.5810546875-0.2490234375,2.4072265625-1.328125z M40.0927734375,145.654296875l0.33203125-0.166015625l-0.166015625,0q-0.166015625,0-0.166015625,0.166015625q5.810546875-3.3203125,8.5498046875-5.2294921875q-5.146484375,2.4072265625-9.7119140625,5.0634765625l0.498046875,0q0.498046875,0,0.6640625,0.166015625z M54.5361328125,124.072265625l0.166015625,0l-0.166015625,0q0.4150390625-0.166015625-2.2412109375,2.32421875q0,0.0830078125-0.166015625,0.166015625l-0.2490234375,0.2490234375q-5.478515625,3.818359375-8.2177734375,5.8935546875q-0.4150390625,0.33203125-1.9921875,1.5771484375t-2.19970703125,1.7431640625t-1.95068359375,1.61865234375t-2.0751953125,1.826171875t-1.7431640625,1.7431640625t-1.7431640625,2.03369140625q0.498046875,0.2490234375,1.826171875-0.45654296875t2.9052734375-1.7431640625t1.9091796875-1.20361328125q1.328125-0.830078125,4.10888671875-2.44873046875t4.19189453125-2.44873046875q2.7392578125-1.5771484375,8.17626953125-4.7314453125t8.17626953125-4.6484375q-0.9130859375-0.166015625-2.7392578125-0.33203125t-1.9921875-0.166015625q-0.498046875,0-1.9921875-0.37353515625t-1.9921875-0.62255859375z M50.13671875,123.2421875q-0.33203125,0-0.498046875-0.0830078125q-0.0830078125-0.0830078125-0.166015625-0.0830078125l-0.498046875,0.498046875q-0.4150390625,0.498046875-1.9091796875,1.66015625q-4.6484375,3.984375-5.7275390625,4.814453125q0.5810546875-0.33203125,3.4033203125-2.158203125t4.6484375-2.78076171875t3.65234375-1.53564453125q-0.498046875-0.33203125-2.9052734375-0.33203125z M43.330078125,121.3330078125l-0.166015625,0l0.166015625,0l-1.9921875-0.6640625q-0.33203125,0-0.70556640625,0.2490234375t-0.7470703125,0.6640625t-0.62255859375,0.5810546875q-2.4072265625,2.4072265625-4.8974609375,4.6484375q-5.5615234375,4.98046875-14.111328125,11.7041015625q0.6640625,0.6640625,1.494140625,0.6640625q0.7470703125,0,3.2373046875-1.66015625q3.0712890625-1.826171875,7.470703125-4.814453125q9.5458984375-6.30859375,14.609375-10.126953125q-0.4150390625-0.4150390625-0.830078125-0.4150390625l-0.99609375,0q-1.4111328125-0.7470703125-1.9091796875-0.830078125z M36.19140625,118.427734375l-0.166015625,0l0.166015625,0q-1.5771484375,0-3.4033203125-2.32421875q-3.154296875,2.65625-10.41748046875,7.51220703125t-10.66650390625,7.92724609375l0.166015625,0q0.830078125-0.5810546875,3.5693359375-2.490234375t4.0673828125-2.78076171875t3.5693359375-2.36572265625t4.2333984375-2.5732421875t3.984375-1.9921875q1.826171875-0.9130859375,3.9013671875-0.9130859375q1.328125,0,1.328125,0.9130859375q0,0.4150390625-0.498046875,1.162109375q0.166015625-0.0830078125,0.498046875-0.29052734375t0.62255859375-0.4150390625t0.62255859375-0.45654296875q-0.4150390625-0.166015625-1.5771484375-0.9130859375z M23.4912109375,126.4794921875l1.162109375-0.7470703125l-2.0751953125,1.2451171875q0.2490234375-0.166015625,0.9130859375-0.498046875l2.7392578125-1.36962890625t3.02978515625-1.5771484375t2.61474609375-1.5771484375t2.490234375-1.95068359375q-1.9921875,0.166015625-5.3125,2.4072265625q-3.7353515625,2.0751953125-12.5341796875,7.96875q4.8974609375-2.9052734375,6.97265625-3.9013671875z M28.720703125,125.400390625l-3.7353515625,2.4072265625q0.99609375-0.498046875,3.7353515625-2.4072265625q-0.5810546875,0.33203125-5.43701171875,2.9052734375t-7.26318359375,4.2333984375q1.0791015625-0.33203125,2.28271484375-0.87158203125t2.11669921875-1.03759765625t2.2412109375-1.328125t1.9921875-1.20361328125t2.158203125-1.4111328125t1.9091796875-1.28662109375z M10.8740234375,129.8828125q0-0.0830078125,0.4150390625-0.498046875t1.2451171875-0.99609375t1.70166015625-1.20361328125t1.95068359375-1.328125t1.86767578125-1.20361328125t1.53564453125-0.99609375t0.830078125-0.5810546875q9.3798828125-6.5576171875,11.3720703125-8.3837890625q0-0.166015625-0.166015625-0.33203125q-7.8857421875,5.5615234375-14.27734375,9.3798828125q-4.98046875,2.7392578125-6.640625,3.2373046875q-0.33203125,0.166015625-0.33203125,0.830078125q0,0.5810546875,0.498046875,2.0751953125z M17.3486328125,91.7822265625l0,0.166015625l0-0.166015625q0.33203125,0.6640625,0.33203125,0.99609375q0.33203125-0.33203125,1.03759765625-0.9130859375t1.03759765625-0.9130859375l-0.4150390625,0q-1.9921875,0-1.9921875,0.6640625l0,0.166015625z M44.4091796875,83.232421875l-1.2451171875,0.9130859375l1.7431640625-1.2451171875q-0.166015625,0.166015625-0.498046875,0.33203125q-5.2294921875,3.4033203125-18.095703125,11.455078125q-1.826171875,1.162109375-5.3125,3.27880859375t-5.2294921875,3.19580078125q-0.33203125,0.2490234375-1.494140625,0.830078125t-1.70166015625,0.95458984375t-1.20361328125,1.12060546875t-0.830078125,1.494140625q3.9013671875-2.32421875,11.74560546875-7.138671875t11.74560546875-7.138671875q11.2060546875-6.7236328125,17.265625-11.3720703125l-0.498046875,0l-0.6640625,0q-0.6640625,0-1.328125,0.33203125q-0.6640625,0.498046875-4.3994140625,2.98828125z M57.7734375,80.41015625q-3.154296875,1.826171875-9.50439453125,5.478515625t-9.50439453125,5.5615234375q0.99609375-0.33203125,1.66015625-0.33203125l0.5810546875,0q0.5810546875,0.0830078125,1.0791015625,0.45654296875t0.7470703125,0.37353515625q0.498046875,0,0.99609375-0.33203125q1.0791015625-0.6640625,3.19580078125-2.03369140625t3.27880859375-2.03369140625q6.806640625-4.6484375,9.5458984375-7.3046875q-0.2490234375,0-0.830078125,0.0830078125t-0.9130859375,0.0830078125l-0.33203125,0z M67.1533203125,80.908203125q-0.33203125,0-0.33203125,0.33203125q0.498046875,0,0.498046875-0.33203125l-0.166015625,0z M53.0419921875,89.70703125q-0.0830078125,0-0.166015625,0.0830078125t-0.166015625,0.0830078125q1.494140625-0.498046875,1.826171875-0.498046875q0.2490234375,0,0.9130859375,0.33203125q0.33203125-0.166015625,0.33203125-0.33203125l1.9921875-1.494140625q0.6640625-0.4150390625,1.95068359375-1.36962890625t1.95068359375-1.36962890625q-1.4111328125,0.7470703125-4.27490234375,2.28271484375t-4.35791015625,2.28271484375z M76.3671875,83.4814453125l-0.4150390625,0.33203125l0.4150390625-0.166015625l0-0.166015625q-1.494140625,1.2451171875-2.9052734375,2.65625q2.2412109375-1.66015625,3.9013671875-1.826171875q-0.166015625-0.166015625-0.498046875-0.4150390625t-0.498046875-0.4150390625z M58.8525390625,90.0390625l0.166015625,0l-0.166015625,0q0.6640625-0.33203125,0.830078125-0.498046875q-0.166015625,0-0.498046875,0.20751953125t-0.33203125,0.29052734375z M28.88671875,106.3916015625q0-0.166015625-0.166015625-0.166015625l0,0.166015625l0,0.166015625l0.166015625-0.166015625l0-0.33203125q0-1.4111328125,0.33203125-2.0751953125q-3.2373046875,3.0712890625-9.75341796875,9.2138671875t-9.75341796875,9.2138671875q2.158203125-0.830078125,4.150390625-2.158203125t5.02197265625-3.77685546875t3.69384765625-2.94677734375q0.166015625-0.0830078125,1.36962890625-1.0791015625t2.5732421875-1.826171875t2.19970703125-0.830078125q0.5810546875,0,0.830078125,0.498046875l-0.45654296875-1.36962890625t-0.37353515625-1.70166015625q0-0.6640625,0.166015625-0.830078125z M38.7646484375,94.521484375q0.166015625-0.0830078125,0.4150390625-0.33203125t0.45654296875-0.37353515625t0.45654296875-0.20751953125q-0.2490234375,0.0830078125-0.45654296875,0.20751953125t-0.45654296875,0.37353515625t-0.4150390625,0.33203125z M9.2138671875,111.8701171875q0,0.0830078125,2.490234375-1.328125t4.0673828125-2.4072265625q1.494140625-0.830078125,4.482421875-2.5732421875t4.5654296875-2.5732421875q0.7470703125-0.4150390625,2.19970703125-1.28662109375t2.19970703125-1.28662109375q0.2490234375-0.166015625,0.99609375-0.53955078125t1.20361328125-0.62255859375t0.95458984375-0.6640625t0.5810546875-0.830078125q1.328125-3.5693359375,4.98046875-5.810546875q-8.7158203125,5.0634765625-17.6806640625,10.2099609375q-1.494140625,0.830078125-4.5654296875,2.61474609375t-4.6484375,2.61474609375q-0.830078125,0.4150390625-1.162109375,1.03759765625t-0.4150390625,1.78466796875t-0.2490234375,1.66015625z M9.0478515625,120.5029296875l0.166015625,0l-0.166015625,0q0-0.0830078125,1.36962890625-1.2451171875t1.61865234375-1.328125q1.0791015625-1.162109375,6.30859375-5.8935546875q6.474609375-6.142578125,9.7119140625-9.0478515625q-0.99609375,0.6640625-14.27734375,9.7119140625q-1.4111328125,1.0791015625-4.98046875,3.2373046875q0.2490234375,1.494140625,0.2490234375,3.2373046875l0,1.328125z M10.0439453125,125.56640625q1.328125-0.4150390625,1.328125-0.6640625q0-0.166015625-0.166015625-0.166015625q-0.33203125,0-1.162109375,0.830078125q1.2451171875-0.33203125,2.4072265625-0.87158203125t3.02978515625-1.7431640625t2.03369140625-1.28662109375q6.474609375-3.9013671875,13.28125-8.6328125q-0.9130859375-0.5810546875-0.9130859375-2.0751953125q0,0.7470703125-0.498046875,1.494140625t-1.53564453125,1.53564453125t-1.7431640625,1.2451171875t-1.9091796875,1.12060546875t-1.28662109375,0.7470703125q-1.162109375,0.7470703125-4.10888671875,2.36572265625t-5.10498046875,3.0712890625t-3.65234375,3.02978515625z M64.580078125,91.1181640625l0.4150390625,0t0.29052734375-0.04150390625l0.2490234375-0.0830078125t0.20751953125-0.0830078125t0.2490234375-0.20751953125t0.2490234375-0.20751953125t0.29052734375-0.29052734375t0.29052734375-0.33203125q0.4150390625-0.4150390625,1.4111328125-1.28662109375t1.494140625-1.36962890625q-1.0791015625,0.5810546875-3.0712890625,1.78466796875t-3.0712890625,1.78466796875q0.6640625,0.33203125,0.99609375,0.33203125z M74.2919921875,96.513671875l0-0.166015625l0,0.166015625q0.33203125,0.166015625,2.158203125-1.61865234375t4.02587890625-4.19189453125t2.28271484375-2.490234375q-0.4150390625-0.2490234375-1.45263671875,0.12451171875t-2.44873046875,1.28662109375t-2.61474609375,1.7431640625t-2.490234375,1.826171875t-1.53564453125,1.162109375l-0.33203125,0q-0.99609375,0-0.99609375-0.9130859375q0-0.166015625,0.166015625-0.33203125l1.494140625-1.9921875q0.5810546875-0.7470703125,1.826171875-2.32421875t1.826171875-2.32421875q-3.0712890625,1.494140625-8.8818359375,5.64453125q1.9921875,0.99609375,3.7353515625,2.7392578125q3.154296875,1.5771484375,3.2373046875,1.66015625z M101.1865234375,106.5576171875l0,0.166015625l0-0.166015625q0.0830078125,0.166015625-1.494140625,1.7431640625t-3.77685546875,3.69384765625t-2.28271484375,2.19970703125q0.2490234375-0.0830078125,2.822265625-1.7431640625t3.984375-2.32421875q0.9130859375-0.498046875,0.9130859375-1.162109375q0-0.2490234375-0.0830078125-0.9130859375t-0.0830078125-0.99609375l0-0.498046875z M101.1865234375,111.8701171875q0-0.166015625-2.78076171875,1.61865234375t-5.85205078125,3.818359375t-3.486328125,2.19970703125q0.166015625,0.166015625,0.498046875,0.166015625q0.99609375,0,3.5693359375-1.9091796875q0.99609375-0.6640625,2.78076171875-1.95068359375t2.69775390625-1.95068359375q0.166015625-0.0830078125,0.70556640625-0.37353515625t0.830078125-0.498046875t0.62255859375-0.53955078125t0.4150390625-0.5810546875z M100.771484375,100.2490234375l0,0.166015625l0-0.166015625q-1.4111328125,1.4111328125-5.60302734375,4.8974609375t-6.10107421875,5.810546875q4.8974609375-2.9052734375,8.134765625-4.7314453125q1.0791015625-0.6640625,3.818359375-2.2412109375q0.166015625,0,0.166015625-0.830078125q0-2.0751953125-0.4150390625-2.9052734375z M97.451171875,107.8857421875q-5.478515625,3.3203125-8.2177734375,4.814453125q-1.162109375,0.5810546875-1.162109375,1.162109375l0,0.6640625q0,0.5810546875-0.166015625,1.2451171875l0,0.33203125q0,0.2490234375-0.0830078125,1.03759765625t-0.0830078125,1.12060546875q0,0.9130859375,0.33203125,0.9130859375q0-0.0830078125-0.0830078125-0.166015625t-0.0830078125-0.166015625q0-0.5810546875,0.70556640625-1.494140625t1.70166015625-1.95068359375t1.162109375-1.20361328125q1.826171875-1.826171875,5.9765625-6.30859375z M100.2734375,86.884765625l0-0.4150390625q-2.65625,2.7392578125-7.84423828125,8.25927734375t-7.76123046875,8.25927734375q1.7431640625-0.99609375,8.798828125-6.474609375q3.65234375-3.2373046875,5.810546875-3.5693359375q1.494140625-0.2490234375,1.494140625,0.830078125q0,1.5771484375-1.9921875,3.5693359375q-2.7392578125,2.9052734375-7.63671875,6.640625q1.162109375-0.7470703125,5.2294921875-2.822265625q2.98828125-2.2412109375,4.0673828125-2.2412109375l0.33203125,0l0-2.7392578125q0-2.4072265625,0.4150390625-4.0673828125q-0.0830078125-0.5810546875-0.498046875-2.2412109375t-0.4150390625-2.490234375l0-0.498046875z M89.0673828125,87.3828125l0.166015625,0l-0.166015625,0q0,0.0830078125,0.2490234375-0.12451171875t0.53955078125-0.4150390625t0.37353515625-0.20751953125z M84.169921875,89.208984375q-0.7470703125,0.7470703125-2.32421875,2.28271484375t-2.32421875,2.28271484375q3.3203125-2.2412109375,5.810546875-3.9013671875q-0.2490234375-0.0830078125-0.6640625-0.37353515625t-0.498046875-0.29052734375z M85.99609375,91.4501953125q-0.0830078125,0,0.9130859375-0.70556640625t1.9921875-1.36962890625l0.99609375-0.6640625q-0.99609375,0.6640625-3.9013671875,2.7392578125q1.9921875-1.4111328125,7.0556640625-3.984375t7.0556640625-3.818359375q-2.32421875,0.498046875-5.27099609375,2.0751953125t-4.2333984375,2.490234375t-4.60693359375,3.2373046875z M93.30078125,84.8095703125l0.33203125-0.166015625l-0.33203125,0.166015625q2.0751953125-0.99609375,2.2412109375-1.162109375q-0.498046875,0-2.2412109375,1.162109375z M81.4306640625,102.490234375q0.7470703125,0.498046875,0.830078125,0.498046875q0.2490234375,0,1.4111328125-1.162109375q0.5810546875-0.6640625,2.44873046875-2.65625t2.78076171875-3.154296875q5.478515625-5.810546875,8.30078125-8.6328125q-5.64453125,3.0712890625-8.96484375,5.2294921875q-0.7470703125,0.4150390625-3.02978515625,1.826171875t-3.44482421875,2.0751953125l-0.7470703125,0.498046875q-0.830078125,0.498046875-1.61865234375,0.87158203125t-1.20361328125,0.37353515625q-0.498046875,0-0.498046875-0.498046875q0-0.4150390625,0.166015625-0.7470703125q-0.6640625,0.6640625-1.162109375,0.9130859375q2.98828125,2.4072265625,4.7314453125,4.5654296875z M84.501953125,106.7236328125q0.5810546875,0.5810546875,6.84814453125-4.7314453125t7.59521484375-7.138671875q-1.4111328125,0.5810546875-2.78076171875,1.53564453125t-3.19580078125,2.490234375t-2.490234375,2.03369140625q-0.33203125,0.2490234375-1.9091796875,1.494140625t-2.65625,1.86767578125t-2.2412109375,0.95458984375q0.166015625,0.2490234375,0.4150390625,0.7470703125t0.4150390625,0.7470703125z M85.830078125,109.130859375q0.166015625,0.33203125,0.53955078125,0.99609375t0.53955078125,0.99609375q1.328125-2.2412109375,5.8935546875-6.0595703125q-0.166015625,0.0830078125-2.0751953125,1.12060546875t-3.44482421875,1.9091796875t-1.45263671875,1.03759765625z M79.0234375,85.4736328125q-0.0830078125-0.0830078125-0.9130859375,1.03759765625t-1.78466796875,2.36572265625t-1.03759765625,1.328125q0.99609375-0.5810546875,2.7392578125-1.66015625t2.7392578125-1.66015625q-1.4111328125-0.99609375-1.7431640625-1.4111328125z M65.8251953125,84.1455078125q0.7470703125-0.4150390625,2.28271484375-1.36962890625t2.28271484375-1.36962890625q-0.830078125,0.0830078125-1.5771484375,0.45654296875t-1.826171875,1.28662109375t-1.162109375,0.99609375z M64.08203125,80.576171875l-0.830078125,0.498046875q0.166015625-0.166015625,0.830078125-0.498046875q-0.33203125-0.166015625-0.830078125-0.166015625q-1.2451171875,0-2.9052734375,1.66015625q-3.2373046875,2.822265625-5.9765625,4.5654296875q1.7431640625-0.9130859375,4.93896484375-3.0712890625t4.77294921875-2.98828125z M54.5361328125,79.912109375q-1.0791015625,0.4150390625-2.94677734375,1.826171875t-2.44873046875,1.7431640625q0.498046875-0.2490234375,6.142578125-3.4033203125q-0.166015625,0-0.4150390625-0.0830078125t-0.33203125-0.0830078125z M35.361328125,81.73828125q-0.166015625,0.166015625-0.166015625,0.33203125l0.33203125-0.33203125l-0.166015625,0q-0.7470703125,0.830078125-2.32421875,0.99609375t-2.2412109375,0.9130859375q-2.9052734375,3.2373046875-5.3125,4.5654296875q-0.7470703125,0.4150390625-3.9013671875,3.2373046875q-0.2490234375,0.2490234375-2.490234375,2.2412109375t-3.486328125,2.98828125q-0.498046875,0.498046875-1.70166015625,1.9091796875t-1.86767578125,1.9921875q2.490234375-1.2451171875,5.0634765625-2.94677734375t5.8935546875-4.2333984375t4.7314453125-3.52783203125q7.7197265625-5.0634765625,13.61328125-8.6328125q-0.33203125,0.166015625-0.9130859375,0.166015625q-0.6640625,0-0.99609375-0.166015625l-0.33203125,0q-0.33203125,0-0.78857421875,0.166015625t-0.70556640625,0.166015625q-0.830078125-0.166015625-1.2451171875-0.166015625q-0.33203125,0-0.99609375,0.33203125z M17.8466796875,137.353515625l0.166015625,0l-0.166015625,0q0.33203125,0.33203125,0.6640625,0.33203125t0.830078125-0.498046875q0.498046875-0.33203125,1.4111328125-1.2451171875q1.7431640625-1.2451171875,3.2373046875-2.490234375q1.162109375-0.9130859375,3.3203125-2.822265625t3.3203125-2.822265625q4.5654296875-3.7353515625,7.63671875-6.806640625q-13.3642578125,9.296875-19.755859375,12.28515625q-1.9921875,0.99609375-3.2373046875,1.162109375q-0.7470703125,0.0830078125-1.20361328125-0.29052734375t-0.45654296875-0.87158203125q0-0.7470703125,0.6640625-1.4111328125q-1.328125,0.9130859375-1.328125,1.4111328125q0,0.166015625,0.166015625,0.33203125t0.53955078125,0.498046875t0.62255859375,0.6640625q0.7470703125,0.2490234375,1.95068359375,1.28662109375t1.61865234375,1.28662109375z M16.8505859375,141.2548828125l-0.498046875,0.498046875q0.166015625-0.0830078125,0.498046875-0.166015625t0.498046875-0.166015625q-0.166015625-0.166015625-0.498046875-0.166015625z M28.22265625,137.51953125l-1.162109375,0.6640625q0.166015625,0,1.162109375-0.6640625q-1.826171875,1.2451171875-4.5654296875,2.7392578125q0.2490234375,0.166015625,0.7470703125,0t1.0791015625-0.5810546875t1.03759765625-0.7470703125t1.03759765625-0.830078125t0.6640625-0.5810546875z M28.388671875,142.0849609375l0.166015625,0l-0.166015625,0q0.5810546875,0,1.9091796875,0.6640625q0.2490234375-0.33203125,0.7470703125-0.9130859375t0.7470703125-0.9130859375q1.2451171875-1.2451171875,3.9013671875-3.5693359375q3.4033203125-2.98828125,9.7119140625-7.802734375q-10.7080078125,6.30859375-19.58984375,11.8701171875q0.33203125,0.0830078125,1.03759765625,0.37353515625t1.20361328125,0.29052734375l0.33203125,0z M44.16015625,146.982421875l0.2490234375,0l-0.2490234375,0q0.498046875,0,1.4111328125,0.53955078125t1.494140625,0.53955078125q0.33203125,0,0.87158203125-0.33203125t1.2451171875-0.9130859375t0.78857421875-0.6640625q4.814453125-3.3203125,9.7119140625-6.97265625q9.296875-6.806640625,12.5341796875-10.8740234375q-0.33203125-0.166015625-0.99609375-0.166015625q-0.498046875,0-0.99609375,0.33203125t-1.12060546875,1.03759765625t-0.95458984375,1.03759765625q-2.98828125,2.2412109375-7.470703125,4.2333984375q-3.65234375,1.826171875-9.8779296875,6.01806640625t-8.466796875,5.52001953125q0.2490234375,0.0830078125,0.87158203125,0.37353515625t0.95458984375,0.29052734375z M62.75390625,151.298828125l0.166015625,0l-0.166015625,0q0.5810546875,0,1.70166015625,0.4150390625t1.70166015625,0.4150390625q0.6640625,0,1.162109375-0.33203125q1.328125-0.9130859375,3.85986328125-2.78076171875t3.77685546875-2.86376953125q8.8818359375-6.0595703125,15.2734375-11.3720703125q-0.4150390625-0.2490234375-1.70166015625,0.45654296875t-2.86376953125,1.826171875t-1.826171875,1.28662109375q-1.2451171875,0.6640625-7.3046875,4.3994140625q-2.9052734375,1.66015625-8.34228515625,4.814453125t-6.10107421875,3.5693359375q0.33203125,0.166015625,0.6640625,0.166015625z M78.525390625,157.3583984375q3.5693359375,1.826171875,3.5693359375,6.97265625q9.296875-5.7275390625,13.9453125-9.130859375l1.2451171875-0.830078125q1.162109375-0.830078125,2.0751953125-1.494140625t2.03369140625-1.5771484375t1.70166015625-1.66015625t0.4150390625-1.2451171875q-7.63671875,5.3125-15.2734375,9.5458984375q-3.486328125,1.9921875-4.7314453125,1.9921875t-1.2451171875-0.99609375q0-1.494140625,1.4111328125-2.9052734375q1.0791015625-1.328125,2.53173828125-2.78076171875t2.5732421875-2.36572265625t3.02978515625-2.53173828125t2.7392578125-2.36572265625q0.166015625-0.166015625,1.70166015625-1.36962890625t2.69775390625-2.28271484375t0.99609375-1.4111328125q-0.33203125-0.33203125-0.6640625-0.33203125t-0.830078125,0.33203125q-7.0556640625,4.150390625-7.63671875,4.3994140625q-11.455078125,6.7236328125-15.6884765625,9.7119140625q0.4150390625,0.2490234375,1.20361328125,0.6640625t1.328125,0.78857421875t0.87158203125,0.87158203125z M68.8134765625,183.2568359375l-0.166015625,0.166015625l0.166015625-0.166015625q-0.830078125,0.830078125-1.9921875,0.830078125q-0.830078125,0-1.162109375-0.166015625q-2.158203125,1.826171875-3.0712890625,2.4072265625q-3.0712890625,2.4072265625-7.3046875,5.0634765625q0.99609375-0.5810546875,3.11279296875-1.78466796875t3.11279296875-1.78466796875q1.328125-0.6640625,4.44091796875-2.490234375t2.86376953125-2.0751953125z M55.615234375,185.2490234375l-0.6640625,0.498046875q0.166015625,0,0.4150390625-0.20751953125t0.2490234375-0.29052734375q-0.5810546875,0.4150390625-2.2412109375,1.494140625t-2.53173828125,1.66015625t-2.11669921875,1.5771484375t-2.158203125,1.9091796875q4.814453125-2.32421875,11.2060546875-6.474609375q-0.2490234375,0-0.6640625,0.0830078125t-0.6640625,0.0830078125q-0.166015625,0-0.830078125-0.33203125z M44.7412109375,181.845703125q-0.5810546875,0-0.7470703125-0.166015625q0.166015625,0.166015625,0.166015625,0.6640625q0,1.5771484375-2.98828125,8.5498046875q5.478515625-4.0673828125,9.9609375-6.806640625q-0.6640625-0.166015625-1.61865234375-0.6640625t-1.36962890625-0.6640625q-2.5732421875-0.4150390625-3.4033203125-0.9130859375z M39.2626953125,180.185546875q-0.4150390625-0.0830078125-1.12060546875,0.498046875t-1.53564453125,1.61865234375t-1.53564453125,2.03369140625t-1.4111328125,2.03369140625t-0.87158203125,1.28662109375q0.7470703125-0.498046875,2.32421875-1.66015625t2.5732421875-1.86767578125t2.490234375-1.494140625t2.822265625-1.12060546875q-2.0751953125,0-3.7353515625-1.328125z M9.0478515625,184.2529296875q0-0.166015625,0.5810546875-0.5810546875t1.53564453125-0.99609375t2.158203125-1.2451171875t2.490234375-1.328125t2.36572265625-1.2451171875t1.9091796875-1.03759765625t0.99609375-0.53955078125q3.984375-2.0751953125,7.138671875-4.3994140625q0.99609375-0.7470703125,0.99609375-0.99609375q0-0.33203125-0.830078125-0.9130859375q-0.830078125-0.2490234375-5.0634765625,2.5732421875q-1.4111328125,0.9130859375-3.94287109375,2.61474609375t-2.86376953125,1.95068359375q-0.4150390625,0.2490234375-1.86767578125,1.162109375t-2.44873046875,1.5771484375t-1.9921875,1.66015625t-1.162109375,1.7431640625z M18.6767578125,181.6796875l-1.9921875,1.2451171875l2.158203125-1.4111328125l-0.166015625,0.166015625q-0.5810546875,0.33203125-3.7353515625,2.19970703125t-4.8974609375,2.78076171875q-0.99609375,0.5810546875-0.99609375,1.162109375l0,0.830078125l0,0.6640625l0,1.0791015625l0,2.158203125q0.2490234375,0,0.7470703125-0.53955078125t1.0791015625-1.20361328125t0.6640625-0.7470703125q0.33203125-0.33203125,0.95458984375-0.99609375t1.20361328125-1.2451171875t1.0791015625-0.99609375q4.8974609375-4.8974609375,7.470703125-7.3046875q-2.7392578125,1.5771484375-3.5693359375,2.158203125z M33.4521484375,179.853515625l-0.6640625,0.33203125q0.166015625,0,0.6640625-0.33203125q0.4150390625-0.2490234375,1.20361328125-0.78857421875t1.20361328125-0.78857421875q-0.166015625-0.166015625-0.498046875-0.166015625q-2.0751953125,0-8.466796875,4.814453125q1.0791015625-0.498046875,3.2373046875-1.53564453125t3.3203125-1.53564453125z M33.4521484375,176.4501953125q-1.2451171875-0.5810546875-2.65625-2.7392578125q0-0.166015625-0.33203125-0.166015625t-0.99609375,0.6640625t-1.36962890625,1.61865234375t-0.87158203125,1.12060546875q-5.810546875,5.5615234375-11.455078125,11.2060546875q2.9052734375-1.494140625,8.798828125-5.52001953125t9.462890625-5.68603515625q-0.0830078125-0.0830078125-0.29052734375-0.2490234375t-0.29052734375-0.2490234375z M23.4912109375,162.0068359375q-0.0830078125-0.33203125-0.78857421875,0.45654296875t-1.53564453125,1.826171875t-0.9130859375,1.12060546875q-2.9052734375,3.4033203125-9.0478515625,10.2099609375q1.9921875-1.2451171875,6.142578125-3.61083984375t6.142578125-3.52783203125q1.826171875-0.9130859375,1.826171875-1.5771484375l-0.33203125-1.328125q-1.4111328125-2.7392578125-1.494140625-3.5693359375z M8.30078125,176.2841796875l1.7431640625-1.9091796875q-1.7431640625,1.7431640625-1.7431640625,1.9091796875q6.30859375-6.8896484375,10.8740234375-12.28515625q-0.830078125,0.498046875-4.52392578125,3.27880859375t-5.85205078125,3.52783203125q-0.99609375,0.498046875-0.99609375,2.0751953125q0,0.9130859375,0.498046875,3.4033203125z M20.419921875,154.3701171875q-0.2490234375,0.0830078125-0.498046875,0.12451171875t-0.33203125,0.0830078125t-0.20751953125,0.04150390625t-0.166015625,0.12451171875t-0.12451171875,0.2490234375l-0.2490234375,0.37353515625q-0.498046875,0.830078125-1.494140625,2.158203125q-1.328125,1.66015625-6.474609375,7.5537109375q1.66015625-0.99609375,5.0634765625-2.98828125t5.146484375-2.98828125q1.162109375-0.5810546875,1.162109375-0.99609375q0-0.166015625-0.04150390625-0.4150390625t-0.12451171875-0.6640625l-0.166015625-0.830078125q-0.166015625-0.33203125-0.29052734375-0.70556640625t-0.20751953125-0.53955078125t-0.29052734375-0.33203125t-0.70556640625-0.2490234375z M12.0361328125,154.3701171875l-0.166015625,0l0.166015625,0q-0.33203125,0.33203125-1.162109375,0.33203125q-0.9130859375,0-2.4072265625-0.498046875q-0.498046875,0.7470703125-0.498046875,1.66015625l0,1.66015625l0,0.7470703125q2.490234375-1.328125,6.30859375-3.7353515625q-1.4111328125,0-2.2412109375-0.166015625z M10.8740234375,158.603515625l-0.166015625,0.166015625l0.830078125-0.6640625q-0.166015625,0.166015625-0.6640625,0.498046875q-1.494140625,0.7470703125-2.7392578125,1.494140625q0.166015625,0.498046875,0.166015625,1.7431640625q0.166015625,0.99609375,0.166015625,3.4033203125q0.6640625-0.7470703125,2.2412109375-2.44873046875t2.490234375-2.69775390625t2.11669921875-2.53173828125t2.03369140625-2.86376953125q-5.146484375,3.0712890625-6.474609375,3.9013671875z M14.111328125,176.7822265625q-0.2490234375,0.0830078125-1.494140625,0.6640625t-1.9091796875,0.95458984375t-1.36962890625,1.03759765625t-0.70556640625,1.4111328125q0,0.0830078125,0.0830078125,0.33203125t0.0830078125,0.33203125q1.328125-0.99609375,4.0673828125-3.11279296875t4.150390625-3.19580078125q-0.498046875,0.2490234375-1.45263671875,0.78857421875t-1.45263671875,0.78857421875z M28.388671875,187.158203125l0-0.166015625l0,0.166015625q0.33203125,0.0830078125,0.78857421875,0.53955078125t0.70556640625,0.45654296875t0.5810546875-0.33203125q0.498046875-0.5810546875,1.2451171875-1.53564453125t0.9130859375-1.20361328125q3.0712890625-3.9013671875,4.3994140625-5.3955078125q-6.7236328125,4.31640625-9.9609375,5.7275390625q0.9130859375,0.9130859375,1.328125,1.7431640625z M37.9345703125,191.7236328125l-0.166015625,0l0.166015625,0q0.166015625,0.0830078125,0.37353515625,0.166015625t0.29052734375,0.12451171875t0.166015625,0.04150390625l0.498046875-0.99609375q0.166015625-0.33203125,0.4150390625-1.03759765625t0.4150390625-1.03759765625q0.2490234375-0.9130859375,0.95458984375-2.69775390625t0.95458984375-2.53173828125q-1.66015625,0.99609375-4.814453125,3.02978515625t-4.7314453125,2.94677734375q1.2451171875,0.99609375,2.7392578125,1.494140625q1.494140625,0,2.7392578125,0.498046875z M43.828125,194.130859375q0.4150390625,0,1.28662109375,0.33203125t1.28662109375,0.33203125q0.498046875,0.0830078125,1.28662109375-0.29052734375t1.36962890625-0.7470703125t1.45263671875-1.0791015625t1.03759765625-0.78857421875q6.5576171875-4.3994140625,9.130859375-6.30859375q-5.8935546875,3.5693359375-11.7041015625,6.97265625q-0.33203125,0.166015625-1.0791015625,0.62255859375t-1.36962890625,0.7470703125t-1.12060546875,0.37353515625q-0.99609375,0-0.99609375-0.99609375q0-1.2451171875,0.498046875-1.7431640625q0.4150390625-0.5810546875,0.9130859375-1.12060546875t1.162109375-1.0791015625t1.12060546875-0.9130859375t1.328125-0.99609375t1.20361328125-0.830078125t1.328125-0.87158203125l1.2451171875-0.830078125q-0.498046875-0.0830078125-1.4111328125,0.4150390625t-1.7431640625,1.0791015625t-1.86767578125,1.4111328125t-1.28662109375,0.99609375q-1.0791015625,0.6640625-2.98828125,2.03369140625t-2.9052734375,2.03369140625q2.490234375,1.2451171875,2.822265625,1.2451171875z M50.966796875,195.625q0.33203125-0.166015625,1.9091796875-0.166015625q1.66015625,0,1.826171875,0.166015625q2.490234375-2.158203125,3.5693359375-2.9052734375q1.66015625-1.328125,4.85595703125-3.486328125t4.02587890625-2.7392578125q-1.9091796875,1.162109375-5.478515625,3.11279296875t-4.8974609375,2.78076171875q-5.5615234375,3.3203125-5.810546875,3.2373046875z M75.2880859375,194.62890625l0.166015625-0.33203125q-0.33203125,0-0.33203125,0.166015625t0.166015625,0.166015625q0.9130859375-1.162109375,2.0751953125-1.162109375q0.830078125,0,1.162109375,0.33203125q0.498046875,0.498046875,0.830078125,0.498046875q0.0830078125,0,1.4111328125-0.99609375q0.7470703125-0.498046875,1.494140625-1.2451171875q1.162109375-0.4150390625,2.4072265625-1.36962890625t2.69775390625-2.2412109375t2.19970703125-1.78466796875q2.822265625-2.0751953125,7.63671875-5.9765625q0.33203125-0.2490234375,1.2451171875-0.9130859375t1.36962890625-1.03759765625t0.99609375-1.12060546875t0.70556640625-1.494140625q-2.4072265625,1.494140625-7.7197265625,4.10888671875t-7.802734375,4.19189453125q-8.5498046875,5.3125-18.3447265625,12.0361328125q0.6640625,0.0830078125,1.7431640625-0.33203125t1.494140625-0.498046875t1.5771484375-0.70556640625t1.826171875-0.62255859375q0.33203125,0,0.99609375,0.33203125z M86.162109375,191.5576171875l0.33203125-0.33203125q-0.33203125,0.166015625-0.33203125,0.33203125q0.33203125-0.2490234375,1.162109375-0.78857421875t1.20361328125-0.830078125t0.95458984375-0.830078125t0.99609375-1.12060546875q-2.158203125,1.826171875-3.0712890625,2.4072265625q-0.0830078125,0.0830078125-0.45654296875,0.29052734375l-0.7470703125,0.4150390625t-0.37353515625,0.29052734375q0,0.166015625,0.33203125,0.166015625z M98.115234375,182.177734375q-0.2490234375,0.5810546875-4.482421875,3.4033203125l1.2451171875,0q0.2490234375,0,1.66015625-0.99609375q0.99609375-0.830078125,1.5771484375-2.4072265625z M86.162109375,195.126953125l0.498046875-0.498046875l-0.6640625,0.33203125z"/><path fill="#" d=""/></svg>
