<?xml version="1.0"?>
<svg version="1.1" xmlns="http://www.w3.org/2000/svg" width="400px" height="200px" style=""><path fill="#f0820c" d="M3.09765625,142.3515625q0-1.77734375,1.21875-2.259765625t2.640625-0.482421875q2.48828125,0,4.21484375,2.234375t3.275390625,4.900390625t3.072265625,4.900390625t3.60546875,2.234375q1.57421875,0,2.869140625-0.787109375t2.234375-1.98046875t1.447265625-2.69140625t0.5078125-2.970703125q0-3.859375-1.548828125-7.97265625t-3.9609375-8.48046875t-5.103515625-8.9375t-5.078125-9.29296875t-3.9609375-9.623046875t-1.57421875-9.876953125q0-7.46484375,4.46875-11.578125t11.78125-4.11328125q2.48828125,0,5.02734375,0.7109375t4.671875,2.1328125t3.478515625,3.50390625t1.345703125,4.875q0,0.9140625-1.345703125,1.193359375t-1.955078125,0.279296875q-0.9140625,0-1.98046875-0.228515625t-1.37109375-1.244140625t-0.86328125-2.3359375t-1.396484375-2.462890625t-1.98046875-1.98046875t-2.513671875-0.837890625q-2.28515625,0-3.884765625,0.939453125t-2.58984375,2.513671875t-1.47265625,3.529296875t-0.482421875,4.037109375q0,4.875,1.67578125,9.826171875t4.1640625,9.8515625t5.408203125,9.673828125t5.408203125,9.29296875t4.1640625,8.8359375t1.67578125,8.17578125q0,3.453125-1.625,5.83984375t-4.11328125,3.884765625t-5.509765625,2.18359375t-5.916015625,0.685546875q-3.09765625,0-6.34765625-1.244140625t-5.83984375-3.427734375t-4.265625-5.103515625t-1.67578125-6.322265625z M46.7019921875,128.58984375q0-1.015625,0.228515625-2.69140625t0.533203125-3.326171875t0.7109375-3.072265625t0.96484375-1.828125q0.40625-0.40625,1.396484375-0.8125t2.08203125-0.583984375t2.03125,0.15234375t1.142578125,1.345703125q-0.7109375,0.9140625-1.294921875,3.123046875t-0.888671875,4.900390625q-0.25390625,2.28515625-0.25390625,4.72265625l0,0.86328125q0.05078125,2.84375,0.5078125,5.23046875t1.396484375,3.935546875t2.615234375,1.548828125q3.5546875,0,6.5-3.275390625t5.23046875-7.998046875t4.01171875-10.029296875t2.9453125-9.267578125q0.3046875-1.16796875,1.447265625-1.57421875t2.462890625-0.279296875t2.361328125,0.634765625t1.244140625,1.21875q-1.015625,8.53125-1.599609375,17.0625t-0.583984375,17.1640625q0,1.67578125,0.15234375,3.072265625t-0.15234375,2.38671875t-1.345703125,1.57421875t-3.326171875,0.583984375q-0.5078125,0-1.294921875-0.1015625t-1.625-0.330078125t-1.421875-0.685546875t-0.583984375-1.06640625q0-3.7578125,0.279296875-7.71875t0.787109375-7.66796875q-1.37109375,1.98046875-3.021484375,3.935546875t-3.630859375,3.529296875t-4.265625,2.513671875t-4.92578125,0.939453125q-3.7578125,0-5.916015625-1.77734375t-3.25-4.443359375t-1.37109375-5.814453125t-0.279296875-6.09375z M94.59734375,120.337890625q-0.126953125-1.701171875,0.203125-3.123046875t1.3203125-2.310546875t3.173828125-0.888671875q0.5078125,0,1.244140625,0.126953125t1.447265625,0.330078125t1.193359375,0.609375t0.482421875,1.1171875l0,5.73828125q1.98046875-2.28515625,4.31640625-3.275390625t5.33203125-0.990234375q2.28515625,0,4.51953125,1.041015625t4.21484375,2.767578125t3.427734375,3.80859375t2.107421875,4.1640625q0.40625-1.87890625,0.9140625-4.595703125t1.498046875-5.205078125t2.615234375-4.265625t4.31640625-1.77734375q2.89453125,0,4.875,2.08203125t3.224609375,5.408203125t1.87890625,7.439453125t0.939453125,8.125t0.3046875,7.490234375l0,5.458984375q0,0.609375-0.45703125,0.990234375t-1.142578125,0.583984375t-1.421875,0.25390625t-1.142578125,0.05078125q-1.57421875,0-2.869140625-0.482421875t-1.294921875-2.462890625l0-4.5703125t-0.1015625-5.916015625t-0.35546875-6.34765625t-0.66015625-5.763671875t-1.041015625-4.1640625t-1.548828125-1.625q-1.26953125,0-1.828125,1.421875t-0.939453125,3.60546875t-0.583984375,4.62109375t-0.55859375,4.62109375t-1.142578125,3.580078125t-2.158203125,1.396484375q-1.47265625,0-2.58984375-1.396484375t-2.208984375-3.478515625t-2.18359375-4.46875t-2.412109375-4.46875q-1.3203125-2.1328125-2.84375-3.453125q-1.37109375-1.26953125-3.09765625-1.21875l-0.25390625,0q-2.28515625,0.1015625-3.580078125,1.650390625t-1.98046875,3.783203125t-0.837890625,4.798828125t-0.15234375,4.494140625q0,1.828125,0.3046875,4.265625q0.203125,1.625,0.203125,3.09765625q0,0.76171875-0.05078125,1.47265625q-0.15234375,2.1328125-1.142578125,3.580078125t-3.681640625,1.447265625q-1.015625,0-2.5390625-0.203125t-2.03125-1.37109375q-1.16796875-2.08203125-1.77734375-5.255859375t-0.9140625-6.55078125t-0.35546875-6.703125t-0.05078125-5.712890625q0-1.67578125-0.126953125-3.376953125z M158.7680859375,120.337890625q-0.126953125-1.701171875,0.203125-3.123046875t1.3203125-2.310546875t3.173828125-0.888671875q0.5078125,0,1.244140625,0.126953125t1.447265625,0.330078125t1.193359375,0.609375t0.482421875,1.1171875l0,5.73828125q1.98046875-2.28515625,4.31640625-3.275390625t5.33203125-0.990234375q2.28515625,0,4.51953125,1.041015625t4.21484375,2.767578125t3.427734375,3.80859375t2.107421875,4.1640625q0.40625-1.87890625,0.9140625-4.595703125t1.498046875-5.205078125t2.615234375-4.265625t4.31640625-1.77734375q2.89453125,0,4.875,2.08203125t3.224609375,5.408203125t1.87890625,7.439453125t0.939453125,8.125t0.3046875,7.490234375l0,5.458984375q0,0.609375-0.45703125,0.990234375t-1.142578125,0.583984375t-1.421875,0.25390625t-1.142578125,0.05078125q-1.57421875,0-2.869140625-0.482421875t-1.294921875-2.462890625l0-4.5703125t-0.1015625-5.916015625t-0.35546875-6.34765625t-0.66015625-5.763671875t-1.041015625-4.1640625t-1.548828125-1.625q-1.26953125,0-1.828125,1.421875t-0.939453125,3.60546875t-0.583984375,4.62109375t-0.55859375,4.62109375t-1.142578125,3.580078125t-2.158203125,1.396484375q-1.47265625,0-2.58984375-1.396484375t-2.208984375-3.478515625t-2.18359375-4.46875t-2.412109375-4.46875q-1.3203125-2.1328125-2.84375-3.453125q-1.37109375-1.26953125-3.09765625-1.21875l-0.25390625,0q-2.28515625,0.1015625-3.580078125,1.650390625t-1.98046875,3.783203125t-0.837890625,4.798828125t-0.15234375,4.494140625q0,1.828125,0.3046875,4.265625q0.203125,1.625,0.203125,3.09765625q0,0.76171875-0.05078125,1.47265625q-0.15234375,2.1328125-1.142578125,3.580078125t-3.681640625,1.447265625q-1.015625,0-2.5390625-0.203125t-2.03125-1.37109375q-1.16796875-2.08203125-1.77734375-5.255859375t-0.9140625-6.55078125t-0.35546875-6.703125t-0.05078125-5.712890625q0-1.67578125-0.126953125-3.376953125z M222.811875,133.05859375q0-3.453125,0.939453125-6.65234375t2.818359375-5.712890625t4.697265625-4.01171875t6.525390625-1.498046875q2.28515625,0,5.052734375,0.685546875t5.205078125,2.03125t4.0625,3.427734375t1.625,4.7734375q0,1.26953125-0.431640625,1.9296875t-1.751953125,0.66015625l-0.55859375-0.1015625q1.47265625,3.9609375,2.5390625,8.125t2.08203125,8.328125q0.40625,0.8125,0.609375,1.447265625t0.203125,1.244140625q0,0.8125-0.45703125,1.345703125t-1.193359375,0.787109375t-1.5234375,0.35546875t-1.396484375,0.1015625q-2.18359375,0-3.275390625-0.76171875t-1.57421875-2.08203125t-0.583984375-2.970703125t-0.40625-3.326171875q-0.609375,1.98046875-1.599609375,3.859375t-2.3359375,3.376953125t-3.173828125,2.38671875t-4.11328125,0.888671875q-3.3515625,0-5.63671875-1.9296875t-3.681640625-4.748046875t-2.03125-6.017578125t-0.634765625-5.94140625z M230.0228125,132.34765625q0,1.87890625,0.25390625,3.9609375t0.837890625,4.11328125t1.498046875,3.833984375t2.28515625,3.173828125q2.48828125-2.69140625,3.681640625-6.55078125t2.1328125-7.439453125t2.1328125-6.14453125t3.681640625-2.564453125q1.57421875,0,2.640625,0.55859375q-0.5078125-1.26953125-1.67578125-2.462890625t-2.615234375-2.18359375t-2.99609375-1.625t-2.919921875-0.634765625q-0.40625,0-0.939453125,0.126953125t-0.837890625,0.025390625q-2.08203125,0.609375-3.427734375,2.107421875t-2.18359375,3.529296875t-1.193359375,4.1640625t-0.35546875,4.01171875z M266.8224609375,118.83984375q0-2.08203125,0.736328125-3.50390625t3.123046875-1.421875q0.9140625,0,2.28515625,0.279296875t1.57421875,1.396484375q0.5078125,2.99609375,0.55859375,6.5t0.35546875,6.6015625q1.16796875-2.28515625,2.99609375-4.92578125t4.1640625-4.875t5.078125-3.70703125t5.5859375-1.47265625q0.203125,0,0.76171875,0.15234375t1.041015625,0.431640625t0.583984375,0.634765625t-0.55859375,0.66015625q-0.203125,0.609375-0.86328125,0.736328125t-1.16796875,0.126953125q-0.3046875,0-0.96484375-0.25390625q-3.7578125,1.98046875-6.3984375,5.3828125t-4.31640625,7.541015625t-2.4375,8.734375t-0.76171875,8.962890625q0,2.18359375-0.990234375,2.640625t-3.173828125,0.45703125q-1.16796875,0-2.462890625-0.25390625t-1.802734375-1.625q-0.9140625-2.89453125-1.498046875-6.65234375t-0.888671875-7.744140625t-0.431640625-7.845703125t-0.126953125-6.95703125z M302.911171875,131.83984375q0-4.671875,1.091796875-9.166015625t1.853515625-8.962890625q0.203125-1.16796875,1.599609375-1.447265625t2.361328125-0.279296875q1.67578125,0,2.69140625,0.5078125q0.40625,0.203125,0.76171875,0.45703125t0.35546875,0.66015625q0,4.3671875-1.041015625,8.53125t-1.041015625,8.8359375q0,1.57421875,0.228515625,2.970703125t0.431640625,2.767578125l0.3046875,1.47265625q0,0.40625,0.05078125,0.7109375t0.15234375,0.7109375q0,0.9140625-1.294921875,1.244140625t-2.259765625,0.330078125q-1.47265625,0-2.716796875-0.583984375t-1.955078125-2.005859375l-0.7109375-1.47265625q-0.609375-1.16796875-0.609375-2.615234375t-0.25390625-2.666015625z M306.161171875,101.26953125l0-0.96484375q0-2.38671875,1.193359375-4.265625t3.580078125-1.87890625q0.3046875,0,0.583984375,0.05078125t0.583984375,0.05078125q0.609375,0.1015625,1.599609375,0.482421875t0.990234375,1.193359375l0,0.1015625q-0.203125,0.40625-0.25390625,0.837890625t-0.25390625,0.736328125l0.1015625-0.1015625q-0.609375,1.57421875-0.990234375,2.5390625t-0.837890625,1.548828125t-1.142578125,0.837890625t-1.955078125,0.25390625q-0.203125,0-0.7109375-0.05078125t-1.091796875-0.203125t-0.990234375-0.40625t-0.40625-0.76171875z M325.0858203125,117.46875q0-1.015625,1.3203125-1.294921875t2.03125-0.279296875q4.46875,0,8.78515625-0.76171875t8.68359375-0.76171875q0.40625,0,1.345703125,0.05078125t1.77734375,0.203125t1.498046875,0.5078125t0.66015625,1.06640625q0,1.26953125-0.609375,3.65625t-1.650390625,5.357421875t-2.28515625,6.296875t-2.48828125,6.34765625t-2.3359375,5.458984375t-1.751953125,3.80859375q1.67578125,0.3046875,4.11328125,0.5078125t4.62109375,0.40625t3.65625,0.685546875t1.37109375,1.193359375q-0.203125,1.16796875-2.08203125,1.828125q-1.828125,0.66015625-4.5703125,0.9140625q-1.67578125,0.15234375-3.5546875,0.15234375q-1.1171875,0-2.234375-0.05078125q-3.046875-0.15234375-5.712890625-0.5078125t-4.443359375-0.990234375t-1.77734375-1.345703125q0-0.3046875,0.888671875-2.48828125t2.18359375-5.306640625t2.869140625-6.8046875t3.021484375-7.083984375t2.5390625-6.04296875t1.498046875-3.65625q-2.99609375,0.203125-6.068359375,0.5078125t-6.068359375,0.3046875q-0.40625,0-1.294921875-0.05078125t-1.7265625-0.25390625t-1.5234375-0.583984375t-0.685546875-0.990234375z M364.32296875,135.140625q0-3.5546875,0.787109375-8.37890625t2.666015625-9.140625t4.951171875-7.337890625t7.744140625-3.021484375q4.3671875,0,6.55078125,2.513671875t2.18359375,6.779296875q0,2.79296875-1.041015625,6.119140625t-2.970703125,6.296875t-4.5703125,4.951171875t-5.890625,1.98046875l-1.3203125-0.1015625q0,1.37109375,0.40625,3.681640625t1.193359375,4.595703125t2.03125,4.01171875t3.021484375,1.7265625q2.58984375,0,4.9765625-2.08203125t4.51953125-4.62109375t3.9609375-4.62109375t3.3515625-2.08203125q0.8125,0,1.67578125,0.25390625t0.96484375,1.421875q0,0.7109375-0.380859375,1.16796875t-0.685546875,1.015625q-1.57421875,2.69140625-3.427734375,5.12890625t-4.189453125,4.41796875t-5.103515625,3.123046875t-6.119140625,1.142578125q-4.3671875,0-7.26171875-1.548828125t-4.671875-4.1640625t-2.564453125-6.04296875t-0.787109375-7.185546875z M373.4128125,131.28125l1.421875,1.26953125q1.015625,0.9140625,2.03125,0.40625t1.828125-1.853515625t1.498046875-3.326171875t1.21875-4.0625t0.787109375-4.0625t0.25390625-3.30078125l0-1.7265625t-0.15234375-1.828125t-0.533203125-1.447265625t-1.193359375-0.736328125q-0.25390625-0.05078125-0.45703125-0.05078125q-1.7265625,0-2.9453125,2.18359375q-1.3203125,2.4375-2.1328125,5.916015625t-1.16796875,7.134765625t-0.45703125,5.484375z M406.7593359375,118.83984375q0-2.08203125,0.736328125-3.50390625t3.123046875-1.421875q0.9140625,0,2.28515625,0.279296875t1.57421875,1.396484375q0.5078125,2.99609375,0.55859375,6.5t0.35546875,6.6015625q1.16796875-2.28515625,2.99609375-4.92578125t4.1640625-4.875t5.078125-3.70703125t5.5859375-1.47265625q0.203125,0,0.76171875,0.15234375t1.041015625,0.431640625t0.583984375,0.634765625t-0.55859375,0.66015625q-0.203125,0.609375-0.86328125,0.736328125t-1.16796875,0.126953125q-0.3046875,0-0.96484375-0.25390625q-3.7578125,1.98046875-6.3984375,5.3828125t-4.31640625,7.541015625t-2.4375,8.734375t-0.76171875,8.962890625q0,2.18359375-0.990234375,2.640625t-3.173828125,0.45703125q-1.16796875,0-2.462890625-0.25390625t-1.802734375-1.625q-0.9140625-2.89453125-1.498046875-6.65234375t-0.888671875-7.744140625t-0.431640625-7.845703125t-0.126953125-6.95703125z"/><path fill="#" d=""/></svg>
